<?xml version="1.0" encoding="iso-8859-1"?>
<!-- Generator: Adobe Illustrator 19.0.0, SVG Export Plug-In . SVG Version: 6.00 Build 0)  -->
<svg version="1.1" id="Capa_1" xmlns="http://www.w3.org/2000/svg" xmlns:xlink="http://www.w3.org/1999/xlink" x="0px" y="0px"
	 viewBox="0 0 512.001 512.001" style="enable-background:new 0 0 512.001 512.001;" xml:space="preserve">
<path style="fill:#EDEBED;" d="M363.852,230.653c0,0,56.233-24.1,121.701-27.749c2.439-0.136,3.963-2.653,2.875-4.84
	c-5.32-10.686-20.066-36.783-40.081-43.455c0,0-76.044,8.449-126.741,67.595L363.852,230.653z"/>
<path style="fill:#DBD9DC;" d="M330.054,222.204c70.555-56.444,147.001-65.755,170.304-67.292c3.295-0.217,5.014-3.969,3.041-6.617
	c-7.604-10.2-26.598-29.783-63.503-35.934l-101.393,25.348l-50.696,84.494L330.054,222.204L330.054,222.204z"/>
<path style="fill:#EDEBED;" d="M254.01,205.305l42.247,16.899c79.413-112.502,174.375-111.838,211.815-106.263
	c3.67,0.546,5.456-4.28,2.297-6.226C470.091,84.905,350.749,32.557,254.01,205.305z"/>
<g>
	<path style="fill:#E6646E;" d="M20.67,112.362l-8.684,42.278c-1.574,9.448,5.711,18.048,15.289,18.048c8.56,0,15.5-6.939,15.5-15.5
		v-44.826C42.775,112.362,20.67,112.362,20.67,112.362z"/>
	<path style="fill:#E6646E;" d="M125.684,32.745l7.858-15.716c1.339-2.678-0.577-5.79-3.567-5.945
		c-26.736-1.38-38.616,10.043-38.616,10.043L80.63,16.836c-3.458-1.383-7.387-0.632-10.163,1.851
		c-27.692,24.772-27.692,85.225-27.692,85.225l76.044-25.348l36.245-21.73c2.419-1.45,2.739-4.923,0.52-6.664
		C141.609,39.201,125.684,32.745,125.684,32.745z"/>
</g>
<path style="fill:#FFC850;" d="M3.539,114.081L47,121.992V79.745c-45.155,0-47.605,22.209-46.914,30.621
	C0.24,112.246,1.683,113.743,3.539,114.081z"/>
<path style="fill:#EBAF4B;" d="M2.392,113.677c0.359,0.179,0.738,0.33,1.147,0.404L47,121.992V100.37
	C14.587,100.611,4.906,107.895,2.392,113.677z"/>
<path style="fill:#FFC850;" d="M245.56,484.134h-16.141l3.5-78.309c0.206-4.658-3.4-8.606-8.062-8.817
	c-4.571-0.169-8.606,3.4-8.821,8.066l-3.534,79.06h-42.987c-4.67,0-8.449,3.783-8.449,8.449s3.779,8.449,8.449,8.449h76.044
	c4.67,0,8.449-3.783,8.449-8.449S250.23,484.134,245.56,484.134z"/>
<path style="fill:#DBD9DC;" d="M140.999,333.63l54.714,72.661c4.781,6.447,12.333,10.248,20.36,10.248h7.541
	c8.438,0,16.322-4.198,21.032-11.2l41.578-61.676L140.999,333.63z"/>
<path style="fill:#EDEBED;" d="M191.351,192.631c-31.738-3.09-55.633-21.123-55.633-55.634V94.416
	c0-24.272-17.745-45.947-41.907-48.251c-27.717-2.643-51.036,19.082-51.036,46.253v91.762c0,56.951,26.207,107.782,67.22,141.089
	c26.549,21.561,59.361,33.974,93.319,38.045l0.49,0.059c28.816,3.454,58.298,0.93,85.412-9.422
	c25.884-9.882,48.928-25.513,67.569-45.333l10.101-34.062c16.255-6.725,32.512-16.269,47.797-29.608
	c1.604-1.4,1.21-4.066-0.743-4.915C397.106,232.72,327.957,205.929,191.351,192.631z"/>
<path style="fill:#DBD9DC;" d="M356.971,307.991l9.915-33.432c16.255-6.725,32.512-16.269,47.797-29.608
	c1.604-1.4,1.21-4.066-0.743-4.915c-16.834-7.316-85.983-34.107-222.589-47.405c-10.925-1.064-20.92-3.898-29.331-8.567
	c-21.423-11.89-47.877,7.548-43.569,31.668C119.863,223.636,204.787,363.273,356.971,307.991z"/>
<path style="fill:#C9C6CA;" d="M286.223,285.574c-66.201,0-146.838-31.562-168.07-77.485c-0.212,2.475-0.169,5.023,0.299,7.643
	c1.411,7.904,4.334,15.898,8.817,23.37c0,0,88.812,134.251,249.333,62.451c2.884-1.29,3.988-4.9,2.323-7.586l-12.038-19.409
	C366.886,274.559,343.784,285.574,286.223,285.574z"/>
<circle style="fill:#4B3F4E;" cx="76.57" cy="87.011" r="8.449"/>
<g>
</g>
<g>
</g>
<g>
</g>
<g>
</g>
<g>
</g>
<g>
</g>
<g>
</g>
<g>
</g>
<g>
</g>
<g>
</g>
<g>
</g>
<g>
</g>
<g>
</g>
<g>
</g>
<g>
</g>
</svg>
